#!OML:ASF H:\Pregnant\Project 1\Capture day 1\Session 1\femalepreg.ASF
:FULLY-SPECIFIED
:DEGREES
641
root -5.73672 15.3945 42.3305 -153.473 5.06301 184.826
lowerback -15.9745 1.00129 -11.681
upperback -2.96237 4.1483 -3.5291
thorax 5.25716 2.13813 3.64396
lowerneck -16.5983 6.56911 5.30838
upperneck 38.9473 3.07382 2.42444
head 17.1074 1.14662 0.360992
rclavicle -2.94201e-014 -4.92986e-014
rhumerus -32.5686 5.64139 -86.1702
rradius 39.9626
rwrist -1.96928
rhand -16.7173 -13.607
rfingers 7.12502
rthumb 9.5081 -43.3725
lclavicle -2.94201e-014 -4.92986e-014
lhumerus -28.8157 -10.3255 76.5957
lradius 33.3458
lwrist 41.807
lhand -31.6628 -5.86503
lfingers 7.12502
lthumb -4.92311 24.0578
rfemur -47.8335 16.7243 16.5607
rtibia 32.7424
rfoot -7.5153 -17.4105
rtoes -8.74006
lfemur -42.0471 -12.9628 -15.4946
ltibia 25.115
lfoot -8.39092 9.8568
ltoes 1.39438
642
root -5.74075 15.3944 42.3334 -153.416 5.05147 184.804
lowerback -15.9408 0.975498 -11.6904
upperback -2.95974 4.11105 -3.52968
thorax 5.2463 2.12041 3.64005
lowerneck -16.5965 6.59621 5.30237
upperneck 38.9398 3.10433 2.45735
head 17.1024 1.16324 0.382766
rclavicle 5.56597e-015 -2.54444e-014
rhumerus -32.5776 5.54991 -86.1236
rradius 39.6269
rwrist -1.90811
rhand -16.7146 -13.6555
rfingers 7.12502
rthumb 9.51071 -43.4208
lclavicle 5.56597e-015 -2.54444e-014
lhumerus -28.9215 -10.2452 76.6491
lradius 33.3231
lwrist 41.8287
lhand -31.6117 -5.80867
lfingers 7.12502
lthumb -4.87385 24.1153
rfemur -47.9295 16.6915 16.5198
rtibia 32.7793
rfoot -7.53167 -17.4685
rtoes -8.81184
lfemur -42.1194 -12.9809 -15.5062
ltibia 25.0883
lfoot -8.34545 9.84358
ltoes 1.49206
643
root -5.74421 15.3944 42.3384 -153.313 5.00359 184.764
lowerback -15.9166 0.925199 -11.7167
upperback -2.97441 4.04751 -3.52969
thorax 5.22462 2.09228 3.64134
lowerneck -16.6172 6.63732 5.28839
upperneck 38.9459 3.14703 2.51276
head 17.1099 1.18672 0.419101
rclavicle 1.63003e-014 -7.95139e-015
rhumerus -32.5826 5.45996 -86.0723
rradius 39.2981
rwrist -1.85353
rhand -16.714 -13.7346
rfingers 7.12502
rthumb 9.5113 -43.5
lclavicle 1.63003e-014 -7.95139e-015
lhumerus -29.0326 -10.1867 76.7102
lradius 33.3082
lwrist 41.8492
lhand -31.5211 -5.70363
lfingers 7.12502
lthumb -4.7863 24.2223
rfemur -48.0967 16.6257 16.4569
rtibia 32.8454
rfoot -7.55696 -17.5326
rtoes -8.89116
lfemur -42.2549 -12.9753 -15.532
ltibia 25.0486
lfoot -8.27975 9.76277
ltoes 1.60246
644
root -5.74718 15.3944 42.3452 -153.174 4.92838 184.708
lowerback -15.9007 0.854192 -11.7614
upperback -3.00219 3.96221 -3.52712
thorax 5.19518 2.05525 3.65173
lowerneck -16.645 6.68781 5.28007
upperneck 38.9594 3.20205 2.56487
head 17.1236 1.21548 0.455644
rclavicle -1.66979e-014 -6.83819e-014
rhumerus -32.5889 5.36529 -86.0131
rradius 38.9777
rwrist -1.80247
rhand -16.7196 -13.7814
rfingers 7.12502
rthumb 9.50593 -43.547
lclavicle -1.66979e-014 -6.83819e-014
lhumerus -29.1484 -10.1429 76.7795
lradius 33.2953
lwrist 41.8645
lhand -31.4041 -5.61287
lfingers 7.12502
lthumb -4.67335 24.3156
rfemur -48.3182 16.5334 16.3767
rtibia 32.9344
rfoot -7.58891 -17.6006
rtoes -8.95764
lfemur -42.4384 -12.9448 -15.5751
ltibia 24.9996
lfoot -8.19608 9.62204
ltoes 1.70485
645
root -5.75043 15.3944 42.3514 -153.044 4.8578 184.653
lowerback -15.8759 0.784253 -11.8117
upperback -3.02914 3.87686 -3.51939
thorax 5.16105 2.01806 3.67023
lowerneck -16.6567 6.72904 5.27865
upperneck 38.9659 3.24954 2.59727
head 17.1301 1.2392 0.480136
rclavicle -4.41302e-014 3.02153e-014
rhumerus -32.6003 5.27605 -85.9437
rradius 38.6693
rwrist -1.76217
rhand -16.7297 -13.8163
rfingers 7.12502
rthumb 9.49618 -43.5823
lclavicle -4.41302e-014 3.02153e-014
lhumerus -29.2682 -10.1109 76.8616
lradius 33.2816
lwrist 41.8745
lhand -31.2586 -5.56795
lfingers 7.12502
lthumb -4.53285 24.3636
rfemur -48.5308 16.4198 16.3121
rtibia 33.0354
rfoot -7.63504 -17.6356
rtoes -9.02121
lfemur -42.6057 -12.9109 -15.6255
ltibia 24.948
lfoot -8.11308 9.48063
ltoes 1.81538
646
root -5.75413 15.3941 42.3567 -152.935 4.79653 184.604
lowerback -15.8457 0.720683 -11.8618
upperback -3.04378 3.79726 -3.50433
thorax 5.13597 1.98165 3.6976
lowerneck -16.6558 6.75505 5.28851
upperneck 38.965 3.2864 2.59299
head 17.1304 1.25521 0.483701
rclavicle 4.37326e-014 -4.6118e-014
rhumerus -32.6103 5.19102 -85.8614
rradius 38.377
rwrist -1.72784
rhand -16.7464 -13.8179
rfingers 7.12502
rthumb 9.48008 -43.5847
lclavicle 4.37326e-014 -4.6118e-014
lhumerus -29.382 -10.0899 76.9587
lradius 33.2684
lwrist 41.8787
lhand -31.1364 -5.55207
lfingers 7.12502
lthumb -4.41487 24.3819
rfemur -48.7131 16.2991 16.2671
rtibia 33.1342
rfoot -7.68619 -17.6496
rtoes -9.03511
lfemur -42.7449 -12.8734 -15.6804
ltibia 24.9019
lfoot -8.03966 9.34712
ltoes 1.94267
647
root -5.75838 15.3936 42.3606 -152.857 4.75191 184.567
lowerback -15.8069 0.668508 -11.9066
upperback -3.04203 3.72855 -3.48421
thorax 5.12225 1.94805 3.72939
lowerneck -16.6354 6.76021 5.31253
upperneck 38.95 3.30569 2.5483
head 17.1192 1.26069 0.462569
rclavicle -1.27222e-014 1.20861e-013
rhumerus -32.6176 5.10696 -85.7699
rradius 38.1047
rwrist -1.70491
rhand -16.7714 -13.8041
rfingers 7.12502
rthumb 9.45592 -43.572
lclavicle -1.27222e-014 1.20861e-013
lhumerus -29.4885 -10.0852 77.0673
lradius 33.2605
lwrist 41.8844
lhand -31.0384 -5.56647
lfingers 7.12502
lthumb -4.32025 24.3695
rfemur -48.8485 16.1781 16.2465
rtibia 33.2226
rfoot -7.74931 -17.6376
rtoes -9.02583
lfemur -42.8438 -12.8265 -15.7427
ltibia 24.8678
lfoot -7.98186 9.22491
ltoes 2.07519
648
root -5.76391 15.3929 42.3614 -152.847 4.74476 184.554
lowerback -15.756 0.640335 -11.929
upperback -3.00459 3.68242 -3.45702
thorax 5.13798 1.92004 3.76075
lowerneck -16.6082 6.75241 5.33504
upperneck 38.9197 3.31856 2.48219
head 17.0982 1.26115 0.43063
rclavicle -1.51076e-014 -3.65764e-014
rhumerus -32.6124 5.03644 -85.671
rradius 37.8551
rwrist -1.6963
rhand -16.7945 -13.7787
rfingers 7.12502
rthumb 9.43367 -43.5476
lclavicle -1.51076e-014 -3.65764e-014
lhumerus -29.5782 -10.0812 77.1845
lradius 33.2552
lwrist 41.8862
lhand -30.9833 -5.61096
lfingers 7.12502
lthumb -4.26699 24.326
rfemur -48.8868 16.0622 16.2761
rtibia 33.2969
rfoot -7.82746 -17.5852
rtoes -8.96615
lfemur -42.8522 -12.793 -15.7985
ltibia 24.8496
lfoot -7.95001 9.16418
ltoes 2.21487
649
root -5.77005 15.3919 42.3611 -152.864 4.75292 184.555
lowerback -15.7042 0.623537 -11.937
upperback -2.9467 3.64736 -3.42761
thorax 5.1743 1.89432 3.78902
lowerneck -16.5856 6.73465 5.35798
upperneck 38.8824 3.32362 2.4025
head 17.0747 1.25727 0.391224
rclavicle -1.15295e-014 1.90833e-014
rhumerus -32.5944 4.96732 -85.5687
rradius 37.6274
rwrist -1.69877
rhand -16.8273 -13.7744
rfingers 7.12502
rthumb 9.40195 -43.5447
lclavicle -1.15295e-014 1.90833e-014
lhumerus -29.6525 -10.0939 77.3079
lradius 33.2583
lwrist 41.8909
lhand -30.9795 -5.68382
lfingers 7.12502
lthumb -4.2633 24.2533
rfemur -48.8809 15.9471 16.3311
rtibia 33.3624
rfoot -7.92353 -17.5168
rtoes -8.84559
lfemur -42.8279 -12.7489 -15.8568
ltibia 24.8477
lfoot -7.93624 9.1155
ltoes 2.3558
